<svg xmlns="http://www.w3.org/2000/svg" width="1024" height="1024">
  <path fill="#030303" d="M0 0h1024v1024H0V0Z"/>
  <path fill="#3555E6" d="m411 362 3.70507812.50292969C447.12192656 367.119428 479.80288493 375.07518489 511 385l-2 2c-2.12565222-.64368342-4.25050346-1.29001244-6.375-1.9375l-3.5859375-1.08984375C496 383 496 383 494 382l-1 2-2-2c-1.65919896-.36871088-3.32774271-.69595322-5-1l-2.8125-1c-3.76445471-1.1810054-7.26677226-1.59440748-11.1875-2v-2l-8-1-1 3 4 1v2l3.75.3125c5.9016827.65677033 11.52573401 2.14832477 17.25 3.6875l2.89453125.7578125c5.01081161 1.33154434 9.94345092 2.79006712 14.83984375 4.49609375 1.79165891.59001181 3.60215449 1.12279817 5.41772461 1.63452148 3.92523609 1.11675902 7.80454685 2.36507202 11.67993164 3.64282227l2.17521667.71691895c1.50365212.49664046 3.00701089.99416988 4.51008606 1.49255371 1.53818178.50885494 3.07725804 1.01501345 4.6171875 1.51855468 2.23446879.73067722 4.46622407 1.46914056 6.69750977 2.20947266l2.08955383.67883301C545.84432006 403.12629585 547.78973683 403.78973683 550 406c-7.39515416-1.48525178-14.40980318-3.68621235-21.5625-6.0625-102.51005944-35.30847594-102.51005944-35.30847594-205.93359375-26.43359375C317.77523735 376.32930436 314.73816484 379.78550549 313 385c-.91957031 9.86567572.40684166 17.26718503 5 26l1.57421875 3.02734375C328.8440909 430.81683247 343.00421989 444.30103084 358 456c1.32888153 1.06806983 2.65694515 2.13715776 3.984375 3.20703125C372.86134037 467.90034041 384.20347854 475.61370481 396 483l2.36230469 1.47998047C400.24050318 485.6549887 402.11965976 486.82842328 404 488c-3.73666725-8.08850113-7.48707268-16.17046537-11.25146484-24.24609375-1.09181851-2.34241174-2.1803857-4.68622558-3.26660157-7.03125C378.96913456 433.84024483 378.96913456 433.84024483 365 413v-2c6.93810159.23672463 13.87565631.48633931 20.81298828.74462891 2.35666572.08625493 4.71343864.16963339 7.0703125.25 3.40120658.11648952 6.80188448.24355538 10.20263672.37255859l3.1578064.10128784C417.92094363 412.93415254 429.29119017 414.51449298 438 423c9.25250622 11.42821932 15.09303775 24.87362632 20.75 38.3125l.80554199 1.90072632c3.53069241 8.35559821 6.83690098 16.77324948 9.95812989 25.29072571 1.67090297 4.54311583 3.38231727 9.07057012 5.09533691 13.59794616.83789775 2.24903761 1.65620649 4.50547952 2.45385742 6.76910401 4.3109523 13.98559211 4.3109523 13.98559211 14.20875549 23.92573547 2.54001088 1.07276878 5.08895423 1.90966159 7.74778748 2.63594055 2.69726673.77260691 5.25177756 1.82255358 7.84954834 2.87588501 3.16507788 1.27488529 6.36909469 2.44366919 9.56854248 3.62893677 1.32898278.49749496 2.65775964.99554033 3.98632812 1.49414062C523.6135558 544.62739814 526.80593879 545.81585866 530 547l.30810547-2.02905273c.8582682-3.68534431 2.27289934-7.04286313 3.76220703-10.50610352l.94746399-2.23591614c1.03157018-2.43227084 2.06949084-4.86178043 3.10722351-7.29142761 1.09978337-2.58959377 2.19780605-5.17992943 3.29570007-7.77032471.75234231-1.77491777 1.50520653-3.5496144 2.25857544-5.32409668 3.32168921-7.82804715 6.59189744-15.67688175 9.85044861-23.53137207C585.83059168 410.50338395 585.83059168 410.50338395 599.5 383.9375l1.09350586-2.16137695c5.65714007-10.63978998 13.46922498-17.37062345 24.84008789-21.19799805 7.27330715-1.63843144 14.65488215-1.72728745 22.078125-1.7109375l2.94502258-.00289917c2.03956671-.00067624 4.07913563.00113896 6.11869812.00534058 3.11357453.0053737 6.22700597.00002708 9.34057617-.00634766 1.9902347.00066054 3.9804693.0019412 5.97070313.00390625l2.8033905-.00613403C679.24133744 358.87751627 683.52153134 359.07004476 688 360c-2.37417004 4.22799266-4.83647139 8.35912439-7.45578003 12.43896484C674.8344979 381.35702301 669.89198033 390.55233193 665.125 400c-.78620782 1.54590596-1.57291791 3.09155658-2.36010742 4.63696289-1.91984751 3.77381534-3.83058817 7.55215217-5.73834229 11.33209229-1.45940508 2.88731221-2.92909675 5.76936794-4.39764404 8.65203857-6.58476007 12.98233154-12.7831946 26.12951408-18.8585968 39.35693359-2.39034444 5.20313841-4.79760649 10.39832026-7.20780945 15.59228516-7.44065407 16.04538034-14.82417225 32.10418951-21.88671875 48.3203125-2.03609431 4.66952613-4.1074869 9.32220515-6.1953125 13.96875l-.90931702 2.02377319c-1.47167038 3.27323766-2.94586468 6.54532443-4.42198181 9.81655884l-1.59448242 3.54248047-1.42236328 3.15185547C588.93971355 563.03413176 588.93971355 563.03413176 588 566l3.078125.31640625c5.93602893.74135216 11.76737625 2.02046277 17.62634277 3.2098999 33.36029415 6.70610198 79.36603388 13.56588312 110.33850098-4.7333374C720.38285601 563.89228444 721.69584157 562.95168318 723 562h2c4.58494303-8.46451022 6.69292251-16.23787449 4.30859375-25.76171875C726.36086854 527.59244287 722.13064149 518.8380232 716 512l1-2c10.14678899 9.85688073 10.14678899 9.85688073 11 16l2 2c.5625 2.0234375.5625 2.0234375 1 4.375.60459332 3.2280965 1.53467686 5.70033463 3 8.625.68161054 6.95242746-1.15515915 13.23273873-5 19h8c.70803998-2.5287142 1.13352283-4.9513502 1.5-7.5625C739 549 739 549 740 546c.15754704-1.95677555.15754704-1.95677555.125-4l.0078125-2.0625c-.06650124-2.15624781-.06650124-2.15624781-1.1328125-4.9375h-2l.625-1.5625c.53387026-3.47015671-.54823239-6.14385791-1.625-9.4375h-2l-.6640625-1.72265625c-2.0951465-5.10159657-4.35859676-8.8569586-8.26171875-12.76953125L724 508l1-3c9.66581456 11.58181922 19.00967496 26.35003817 18 42-2.10791489 11.9508056-8.25200621 19.92389607-18 27-18.72495998 10.92289332-40.84725221 12.06415266-62 12.125l-2.58203125.01391602C646.90930119 586.1072709 633.70736232 584.90683769 620.375 582.75l-2.06738281-.32675171C606.07706126 580.48552121 594.01693069 577.99150287 582 575l-.34472656 2.13671875c-.71576641 3.12761119-1.81159713 5.75538049-3.13964844 8.67578125l-1.56494141 3.46386719C576.38381572 590.5175903 575.81692044 591.7588009 575.25 593c-.58698528 1.29564511-1.17340142 2.59154819-1.75927734 3.88769531-1.21893118 2.69536731-2.44030701 5.3896057-3.66357422 8.08300781C566.99002653 611.2216069 564.18256277 617.48577338 561.375 623.75l-.82299805 1.83450317C556.9170428 633.6873207 553.3160764 641.80415443 549.75 649.9375c-5.37797019 12.26385746-10.84077843 24.48927486-16.31982422 36.70825195l-1.09249878 2.43641663c-.72368629 1.61390306-1.44742063 3.22778458-2.17120361 4.84164429-2.04604217 4.56533817-4.0825695 9.13472514-6.10772705 13.70936584-1.19614466 2.70167549-2.3957723 5.40179747-3.59567261 8.10180664-.81721292 1.84296957-1.62922627 3.68824197-2.44110107 5.53356934l-1.48291016 3.33300781-1.27490234 2.88525391C514.05036026 729.89988247 512.69247763 731.90211637 511 734c-2.76661726-5.44317288-5.35512329-10.92569361-7.80078125-16.51953125l-1.07008362-2.43518066c-1.14952364-2.61825577-2.29576879-5.23792988-3.44163513-7.85778809l-1.20001221-2.7383728c-7.65859751-17.47690338-15.19347756-35.00542441-22.67993164-52.55661011C472.68850794 646.92650334 470.56340167 641.96308279 468.4375 637l-1.39477539-3.25683594c-5.74470081-13.40023894-11.52911064-26.78338484-17.30712891-40.169281-10.83904037-25.11198117-10.83904037-25.11198117-15.00804138-34.87384034-1.52588288-3.57224777-3.06142195-7.13940465-4.62428284-10.69564819-2.62735546-6.00511585-5.15057776-11.98190542-7.25996398-18.19128418-6.23683512-18.34428961-13.79837984-27.91554186-31.0933075-36.49279785l-3.484375-1.67480469c-4.74633197-2.39161763-9.05498074-5.27266032-13.390625-8.33300781l-2.28442383-1.59179688C343.52537684 461.27505772 306.72588674 435.05425293 299 398c-1.09909361-9.27839492.8711395-17.36208805 6.6875-24.75C330.21724923 347.44833785 379.69387824 357.74591525 411 362Z"/>
  <path fill="#9953E8" d="m647.51171875 358.8671875 2.94502258-.00289917c2.03956671-.00067624 4.07913563.00113896 6.11869812.00534058 3.11357453.0053737 6.22700597.00002708 9.34057618-.00634766 1.99023469.00066054 3.98046929.0019412 5.97070312.00390625l2.8033905-.00613403C679.24133744 358.87751627 683.52153134 359.07004476 688 360c-2.37417004 4.22799266-4.83647139 8.35912439-7.45578003 12.43896484C674.8344979 381.35702301 669.89198033 390.55233193 665.125 400c-.78620782 1.54590596-1.57291791 3.09155658-2.36010742 4.63696289-1.91984751 3.77381534-3.83058817 7.55215217-5.73834229 11.33209229-1.45940508 2.88731221-2.92909675 5.76936794-4.39764404 8.65203857-8.7331381 17.2180951-16.87026989 34.72016329-24.74993896 52.34339905-1.43476232 3.20648619-2.87745543 6.40938112-4.32025147 9.61225891-1.03899277 2.3167694-2.06505442 4.63898324-3.09094238 6.96157837-.64487466 1.43412276-1.29035363 2.86797399-1.93652344 4.30151367l-.85723877 1.97232056C615.73937074 504.05691414 613.39367395 506.83824548 610 510c-2.09505989 2.70745654-2.09505989 2.70745654-2.375 5.125-1.06716439 4.90895621-3.38537632 9.39575264-5.625 13.875h-2l.25 2.625c-.2609488 3.52280885-1.0531688 4.79227927-3.109375 7.55078125-1.43985749 2.30278578-2.24941552 4.63522323-3.140625 7.19921875-1.68089237 4.80630163-3.39895933 9.23574386-6 13.625-1.32205369.37558344-2.65598071.71277007-4 1l-1 2-2.046875-.62109375L578.25 561.5625l-2.671875-.80859375c-1.45625094-.42584308-2.91798031-.83597813-4.39282227-1.19213867-2.61131522-.67128101-5.160806-1.48050493-7.72827148-2.30395508l-3.25585938-1.04296875L556.8125 555.125l-3.33007813-1.06640625C547.30820631 552.07783765 541.14685368 550.06409659 535 548v-2h-2c.27255382-5.99618399 2.4865714-10.30947332 5.33203125-15.546875 1.38205582-2.86121157 2.47845556-5.60722387 3.53515625-8.59375 2.542022-7.16902542 5.70090564-14.04333461 8.86132813-20.95703125l1.32226562-2.96484375 1.20825195-2.66015625C554.28928778 492.87747445 554.28928778 492.87747445 553 490c.75794227-2.3307809 1.5827522-4.49977305 2.54296875-6.74609375l.84637451-2.04214478c.92328645-2.22049218 1.86037669-4.43485559 2.79815674-6.64926147.64916414-1.55042986 1.29767626-3.10113287 1.94555664-4.65209961 1.63870658-3.91499683 3.28974072-7.82465354 4.9453125-11.73254394.84463048-1.99590098 1.68583884-3.99318906 2.52514649-5.99133301C578.26401952 429.21243768 588.07176716 406.10141387 599.5 383.9375l1.09228516-2.15844727c5.65619446-10.641381 13.4696775-17.37329456 24.84130859-21.20092773 7.27330715-1.63843144 14.65488215-1.72728745 22.078125-1.7109375Z"/>
  <path fill="#6F83FD" d="m411 362 3.70507812.50292969C447.12192656 367.119428 479.80288493 375.07518489 511 385l-2 2c-2.12565222-.64368342-4.25050346-1.29001244-6.375-1.9375l-3.5859375-1.08984375C496 383 496 383 494 382l-1 2-2-2c-1.65919896-.36871088-3.32774271-.69595322-5-1l-2.8125-1c-3.76445471-1.1810054-7.26677226-1.59440748-11.1875-2v-2l-8-1-1 3 4 1v2l3.75.3125c5.9016827.65677033 11.52573401 2.14832477 17.25 3.6875l2.89453125.7578125c5.01081161 1.33154434 9.94345092 2.79006712 14.83984375 4.49609375 1.79165891.59001181 3.60215449 1.12279817 5.41772461 1.63452148 3.92523609 1.11675902 7.80454685 2.36507202 11.67993164 3.64282227l2.17521667.71691895c1.50365212.49664046 3.00701089.99416988 4.51008606 1.49255371 1.53818178.50885494 3.07725804 1.01501345 4.6171875 1.51855468 2.23446879.73067722 4.46622407 1.46914056 6.69750977 2.20947266l2.08955383.67883301C545.84432006 403.12629585 547.78973683 403.78973683 550 406c-7.39515416-1.48525178-14.40980318-3.68621235-21.5625-6.0625-102.51005944-35.30847594-102.51005944-35.30847594-205.93359375-26.43359375C317.77523735 376.32930436 314.73816484 379.78550549 313 385c-.91957031 9.86567572.40684166 17.26718503 5 26l1.57421875 3.02734375C328.8440909 430.81683247 343.00421989 444.30103084 358 456c1.32888153 1.06806983 2.65694515 2.13715776 3.984375 3.20703125C372.86134037 467.90034041 384.20347854 475.61370481 396 483l2.36230469 1.47998047C400.24050318 485.6549887 402.11965976 486.82842328 404 488c-3.73666725-8.08850113-7.48707268-16.17046537-11.25146484-24.24609375-1.09181851-2.34241174-2.1803857-4.68622558-3.26660157-7.03125C378.96913456 433.84024483 378.96913456 433.84024483 365 413v-2c6.93810159.23672463 13.87565631.48633931 20.81298828.74462891 2.35666572.08625493 4.71343864.16963339 7.0703125.25 3.40120658.11648952 6.80188448.24355538 10.20263672.37255859l3.1578064.10128784C417.92094363 412.93415254 429.29119017 414.51449298 438 423c18.59189187 22.96374763 27.63944164 54.9844729 38.5 82.0625l1.31726074 3.28042603C482.42238341 519.82362266 486.99535642 531.29362381 491 543c-7.14172941-2.27405744-14.02687987-4.97854122-20.9375-7.875l-3.09179688-1.27734375c-4.81207163-2.00835664-9.52727807-4.08916448-14.16210937-6.48046875-3.08564773-1.58275505-6.06853341-2.85568932-9.37890625-3.88671875-4.77061247-1.49120992-8.95549182-3.73319581-13.3046875-6.16796875-1.4734017-.82209697-2.94984823-1.63876721-4.4296875-2.44921875l-1.93701172-1.0847168C421.86330829 512.79756118 421.86330829 512.79756118 419 513c.8345262 2.50357861 1.79371992 4.66785852 3 7h2l-.6875 2.1875c-.40392992 3.63536929.67362269 4.82897806 2.6875 7.8125l1.0625 2.6875c.82053421 2.4552942.82053421 2.4552942 2.9375 4.3125l1 5 2 2c.56520003 2.65537372.73788198 5.29144713 1 8h3l.3125 2.1875c.54786366 2.86489862.54786366 2.86489862 2.1875 5.25 1.70178011 2.90720769 1.95021055 5.26376333 2.5 8.5625.96432076 1.68756133 1.96210419 3.35666496 3 5 .625 2 .625 2 1 4l.5625 2.75L447 582h2c.47985967 1.27057182.9588593 2.54146848 1.4375 3.8125l.80859375 2.14453125C451.86225186 589.62672396 452.43719235 591.31157704 453 593l2 1-1 3c.6406263 2.00107645.6406263 2.00107645 1.75 4l1.046875 2.0625c1.13405738 2.00036301 1.13405738 2.00036301 2.86328125 3.55078125L461 608c-.3125 2.1875-.3125 2.1875-1 4l3 1-2 1v2h3l1 9h2v2h2l.375 2.1875c.6210013 2.79450584 1.40316771 5.22509045 2.625 7.8125l2 1-.125 2.375c-.16228734 2.78616119-.16228734 2.78616119 2.125 4.625 1.26519785 2.8677818 2.29581872 5.80677833 3.375 8.75 1.42525811 3.85185141 3.10119856 7.55731157 4.85546875 11.26953125C485 667 485 667 485 670l3 1-.3125 2.1875c.4410967 3.9698703 2.31733682 5.31653068 5.3125 7.8125h2l1 3-1 2c.2086469 2.31817357.2086469 2.31817357.75 4.875l.484375 2.6171875C497.06712168 696.21985774 498.22884015 697.79174158 500 700c1.05047644 2.31104818 2.05007438 4.64583651 3 7l1.0625 2.5c1.16953533 3.11876089 2.05614824 6.28936146 2.9375 9.5h2l1.375 2.9375c1.28286221 3.13329582 1.28286221 3.13329582 3.625 4.0625l-1-5h2l.87109375-2.1796875c.719539-1.79760263 1.44071916-3.59454983 2.1640625-5.390625L519.0625 710.875l1.03515625-2.5703125C520.78251319 706.55548578 521.40596838 704.78209487 522 703h2l1-7 3-1c-.58776545 4.69056388-1.90179905 8.48412194-3.8359375 12.7890625l-.84854126 1.89608765c-.59006619 1.31415909-1.18357884 2.62677563-1.78036499 3.93789673-.9089288 1.99925325-1.80481302 4.00397977-2.69921875 6.00976562C514.02457576 730.31284428 514.02457576 730.31284428 511 734c-2.76661726-5.44317288-5.35512329-10.92569361-7.80078125-16.51953125l-1.07008362-2.43518066c-1.14952364-2.61825577-2.29576879-5.23792988-3.44163513-7.85778809l-1.20001221-2.7383728c-7.65859751-17.47690338-15.19347756-35.00542441-22.67993164-52.55661011C472.68850794 646.92650334 470.56340167 641.96308279 468.4375 637l-1.39477539-3.25683594c-5.74470081-13.40023894-11.52911064-26.78338484-17.30712891-40.169281-10.83904037-25.11198117-10.83904037-25.11198117-15.00804138-34.87384034-1.52588288-3.57224777-3.06142195-7.13940465-4.62428284-10.69564819-2.62735546-6.00511585-5.15057776-11.98190542-7.25996398-18.19128418-6.23683512-18.34428961-13.79837984-27.91554186-31.0933075-36.49279785l-3.484375-1.67480469c-4.74633197-2.39161763-9.05498074-5.27266032-13.390625-8.33300781l-2.28442383-1.59179688C343.52537684 461.27505772 306.72588674 435.05425293 299 398c-1.09909361-9.27839492.8711395-17.36208805 6.6875-24.75C330.21724923 347.44833785 379.69387824 357.74591525 411 362Z"/>
  <path fill="#653DF3" d="m411 362 3.70507812.50292969C447.12192656 367.119428 479.80288493 375.07518489 511 385l-2 2c-2.12565222-.64368342-4.25050346-1.29001244-6.375-1.9375l-3.5859375-1.08984375C496 383 496 383 494 382l-1 2-2-2c-1.65919896-.36871088-3.32774271-.69595322-5-1l-2.8125-1c-3.76445471-1.1810054-7.26677226-1.59440748-11.1875-2v-2l-8-1-1 3 4 1v2l3.75.3125c5.9016827.65677033 11.52573401 2.14832477 17.25 3.6875l2.89453125.7578125c5.01081161 1.33154434 9.94345092 2.79006712 14.83984375 4.49609375 1.79165891.59001181 3.60215449 1.12279817 5.41772461 1.63452148 3.92523609 1.11675902 7.80454685 2.36507202 11.67993164 3.64282227l2.17521667.71691895c1.50365212.49664046 3.00701089.99416988 4.51008606 1.49255371 1.53818178.50885494 3.07725804 1.01501345 4.6171875 1.51855468 2.23446879.73067722 4.46622407 1.46914056 6.69750977 2.20947266l2.08955383.67883301C545.84432006 403.12629585 547.78973683 403.78973683 550 406c-7.39515416-1.48525178-14.40980318-3.68621235-21.5625-6.0625-102.51005944-35.30847594-102.51005944-35.30847594-205.93359375-26.43359375C317.77523735 376.32930436 314.73816484 379.78550549 313 385c-.91957031 9.86567572.40684166 17.26718503 5 26l1.57421875 3.02734375C328.8440909 430.81683247 343.00421989 444.30103084 358 456c1.32888153 1.06806983 2.65694515 2.13715776 3.984375 3.20703125 9.44532446 7.54887217 19.18390806 14.38182624 29.39453125 20.85546875l2.30737305 1.47558594c1.57962008.99807587 3.17308635 1.97448527 4.77783203 2.93164062C403.68950555 487.69531788 406.2506777 490.03301494 408.5625 495.75l1.44140625 3.421875C411 502 411 502 411 504c-5.63618341-1.55199253-10.23793925-4.29836598-15.1875-7.3125l-2.65356445-1.60766602c-34.35748493-21.02997395-82.33824019-51.54012293-93.35424805-93.22045898-2.06081011-9.88388536-1.10065482-18.27831868 4.48046875-26.828125 8.13203414-10.32926899 21.13027337-15.02042137 33.85546875-16.6484375C362.4596571 356.09966381 386.91138638 358.72667842 411 362Z"/>
  <path fill="#5338F8" d="M554 491c1 2 1 2 .35083008 3.99609375L553.26953125 497.4375l-1.18554687 2.71484375L550.8125 503c-.80721024 1.83279621-1.61320438 3.66612851-2.41796875 5.5l-1.21459961 2.76293945C545.36466172 515.47377973 543.68203512 519.73462336 542 524c-.84795563 2.10667731-1.70099133 4.21132869-2.5625 6.3125l-1.19140625 2.92578125C537 536 537 536 535.28515625 538.73046875L534 541l1 2h-2v3h2v2l1.8515625.41015625c8.34834598 1.96362504 16.44525677 4.54742696 24.58056641 7.25219727l2.78662109.91186523 2.49804688.83081055C569.2518811 558.16810996 569.2518811 558.16810996 573 558v2c1.57925975.39180108 3.16368794.76280736 4.75 1.125l2.671875.6328125c3.02716901.28437042 4.145465.04606673 6.578125-1.7578125 1.55669456-2.31481105 1.55669456-2.31481105 2.75-5l1.296875-2.6875c1.08014633-2.20381282 1.08014633-2.20381282.953125-4.3125h2l.25-3.125c.81935235-4.23332045 2.35311426-6.35457407 4.75-9.875.79070548-3.23038842.79070548-3.23038842 1-6h2l.8125-2.625C604 523 604 523 605.625 519.9375c1.56929216-2.78401717 1.56929216-2.78401717 1.3125-5.5.08936087-3.48507396 1.78898901-4.89651713 4.0625-7.4375l2-3c1.2605638 3.78169139.55580518 4.6199748-1.0703125 8.1796875l-1.44995117 3.21484375L608.875 518.875c-.81912356 1.80860509-1.63823571 3.61721541-2.45677185 5.42608643-.86779103 1.91381925-1.73996342 3.82559194-2.61305237 5.73699951-2.7372119 5.99824226-5.43111367 12.01593943-8.12713623 18.03277588-.85614563 1.90820075-1.71523436 3.81505211-2.57501221 5.72161865L591.51953125 557.3125l-1.40307617 3.11328125C588.93817454 563.03987672 588.93817454 563.03987672 588 566l3.078125.31640625c5.93602893.74135216 11.76737625 2.02046277 17.62634277 3.2098999 33.36029415 6.70610198 79.36603388 13.56588312 110.33850098-4.7333374C720.38285601 563.89228444 721.69584157 562.95168318 723 562h2c4.58494303-8.46451022 6.69292251-16.23787449 4.30859375-25.76171875C726.36086854 527.59244287 722.13064149 518.8380232 716 512l1-2c10.14678899 9.85688073 10.14678899 9.85688073 11 16l2 2c.5625 2.0234375.5625 2.0234375 1 4.375.60459332 3.2280965 1.53467686 5.70033463 3 8.625.68161054 6.95242746-1.15515915 13.23273873-5 19h8c.70803998-2.5287142 1.13352283-4.9513502 1.5-7.5625C739 549 739 549 740 546c.15754704-1.95677555.15754704-1.95677555.125-4l.0078125-2.0625c-.06650124-2.15624781-.06650124-2.15624781-1.1328125-4.9375h-2l.625-1.5625c.53387026-3.47015671-.54823239-6.14385791-1.625-9.4375h-2l-.6640625-1.72265625c-2.0951465-5.10159657-4.35859676-8.8569586-8.26171875-12.76953125L724 508l1-3c9.66581456 11.58181922 19.00967496 26.35003817 18 42-2.10791489 11.9508056-8.25200621 19.92389607-18 27-18.72495998 10.92289332-40.84725221 12.06415266-62 12.125l-2.58203125.01391602C646.90930119 586.1072709 633.70736232 584.90683769 620.375 582.75l-2.06738281-.32675171C606.07706126 580.48552121 594.01693069 577.99150287 582 575l-.34472656 2.13671875c-.71576641 3.12761119-1.81159713 5.75538049-3.13964844 8.67578125l-1.56567383 3.46533203A544185.38273981 544185.38273981 0 0 1 575.25 593c-.58480096 1.2912448-1.16901991 2.58275333-1.75268555 3.87451172-1.21659814 2.69103487-2.43570389 5.38091026-3.65698242 8.06982422-2.62257245 5.77619378-5.22888529 11.55966923-7.8283081 17.34631347-.81986196 1.82397892-1.64176735 3.64703886-2.46368409 5.47009278-2.41908645 5.38745919-4.79858847 10.78161693-7.03662109 16.24707031l-1.11206055 2.71435547c-.66184486 1.63277143-1.31378544 3.26960867-1.95361328 4.91113281C548.71062218 653.45651457 547.86552881 655.23483286 547 657l-3 1c.48828125-6.0546875.48828125-6.0546875 1-8l3-2c1.57145143-3.26861898 2.81303417-6.40672747 3.90234375-9.86328125 1.122663-3.20817932 2.51736839-6.0677211 4.09765625-9.07421875 2.21357529-4.3353682 3.92292933-8.32338906 5-13.0625h2l.3671875-1.93359375L563.875 611.5625l.4921875-2.49609375L565 607l2-1c.90725434-2.11327425.90725434-2.11327425 1.625-4.5625l.7890625-2.50390625L570 597h2l.375-2.8125C573 591 573 591 575 588c.742368-2.13515766.742368-2.13515766 1.25-4.4375l.578125-2.30859375C577.03562548 578.53282036 576.39151616 577.30776096 575 575l-1-2c-2.56782686-1.00357257-2.56782686-1.00357257-5.76171875-1.890625l-3.77636719-1.13012695-2.04382324-.6041565C548.68033093 565.29673142 535.18463032 560.66959484 521.75 555.6875l-2.42733765-.89685059c-4.46145141-1.65139196-8.91218922-3.32782442-13.35171508-5.03729248-1.87367771-.7161775-3.75515192-1.41185867-5.63696289-2.10638427l-3.25585938-1.25244141-2.78417969-1.04760742C488.90799992 542.18448654 487.75715605 535.60616453 486 530c9.7771404 3.75461537 19.54611859 7.53001212 29.3125 11.3125a247572.4980191 247572.4980191 0 0 0 4.30273438 1.66601562C523.07688186 544.31885822 526.53846072 545.65937795 530 547l.28613281-1.97631836c.94616372-4.00760522 2.51631798-7.62504629 4.13574219-11.40258789l1.03594971-2.44822693c1.09297746-2.58035466 2.19240508-5.15790099 3.29217529-7.73536682 1.08127968-2.54676182 2.16125001-5.09407596 3.24108887-7.64144897.69940071-1.64780474 1.40030947-3.29497026 2.1027832-4.94146729 1.51741362-3.55891296 3.02370142-7.11973663 4.46667481-10.70956421l1.33007812-3.29736328 1.11035156-2.80834961C552 492 552 492 554 491Z"/>
  <path fill="#3906EB" d="M724 505c10.46547607 10.02941457 18.07937592 23.492199 19.25 38.125-.75134092 11.6457842-5.1000654 19.02866439-13.3125 27-23.51382008 19.98674707-62.16625652 16.88802487-90.91796875 15.2890625C636 585 636 585 633 583c-2.74341518-.45770675-5.42742471-.83091338-8.1875-1.125l-2.27148438-.26171875C620.69482588 581.40161618 618.84750656 581.19984536 617 581l1-7 2.046875.53125c4.69738567.74561677 9.25449856.0553466 13.96875-.375 3.52381866-.13818897 6.72967245.14227587 10.21630859.58154297C669.51025221 577.13229942 701.65689294 577.57469975 723 562h2c4.58494303-8.46451022 6.69292251-16.23787449 4.30859375-25.76171875C726.36086854 527.59244287 722.13064149 518.8380232 716 512l1-2c10.14678899 9.85688073 10.14678899 9.85688073 11 16l2 2c.5625 2.0234375.5625 2.0234375 1 4.375.60459332 3.2280965 1.53467686 5.70033463 3 8.625.68161054 6.95242746-1.15515915 13.23273873-5 19h8c.70803998-2.5287142 1.13352283-4.9513502 1.5-7.5625C739 549 739 549 740 546c.15754704-1.95677555.15754704-1.95677555.125-4l.0078125-2.0625c-.06650124-2.15624781-.06650124-2.15624781-1.1328125-4.9375h-2l.625-1.5625c.53387026-3.47015671-.54823239-6.14385791-1.625-9.4375h-2l-.6640625-1.72265625c-2.07851623-5.06110253-4.33636469-8.84708844-8.1640625-12.76953125C724 508 724 508 724 505Z"/>
  <path fill="#3AA4F4" d="M365 411c6.93810159.23672463 13.87565631.48633931 20.81298828.74462891 2.35666572.08625493 4.71343864.16963339 7.0703125.25 3.40120658.11648952 6.80188448.24355538 10.20263672.37255859l3.1578064.10128784C417.92094363 412.93415254 429.29119017 414.51449298 438 423c7.14710549 9.15196806 7.14710549 9.15196806 8 14-3.84516615-3.54938414-7.15122083-7.61288008-10-12v-2l-1.75-.87109375c-1.42092503-.7129294-2.83815251-1.43332113-4.25-2.1640625L428 418.9375l-2-1.03515625c-4.33700671-1.95673545-8.06497671-1.98464101-12.8125-1.90234375-7.6411582.07156132-7.6411582.07156132-11.4375-.5625-2.70294822-.70360393-2.70294822-.70360393-4.75.5625-2.99444406.23542471-5.99729849.18517593-9 .1875l-2.5234375.03710938-2.4140625.00585937-2.21484375.01245117C379 416 379 416 377 414h-3c.65986784 5.60887663 1.70353556 9.85584728 4.625 14.6875C380 431 380 431 380 433h2c2.7874546 4.1811819 3.21531237 8.06767777 4 13h2l.3125 1.875c.56275373 2.49026484.56275373 2.49026484 3.6875 4.125 1.59442789 3.77627657 2.24046853 6.91203491 2 11l3 1-1 3h2l.8046875 2.08203125L399.875 471.8125l1.0546875 2.70703125C401.98832155 477.17711591 401.98832155 477.17711591 404 480l3 1v4l1 2-1 2 1.75.375c2.27335767.63148824 4.1753529 1.51358191 6.25 2.625v2l1.5625.25c3.48205732 1.07140225 6.30950885 2.88523605 9.4375 4.75-3 1-3 1-5.91796875-.21484375L416.8125 497.0625l-3.29296875-1.71484375L411 494c0 3.44118336.68964993 5.82757352 2 9l3 1c3 3.44444444 3 3.44444444 3 6l2.10546875.8046875c3.15129201 1.30134326 6.16453296 2.78234633 9.20703125 4.3203125l3.23828125 1.6328125L436 518c-3 1-3 1-5.59375-.21484375L427.5 516.0625c-3.98169779-2.47066962-3.98169779-2.47066962-8.5-3.0625.8345262 2.50357861 1.79371992 4.66785852 3 7h2l-.6875 2.1875c-.40392992 3.63536929.67362269 4.82897806 2.6875 7.8125l1.0625 2.6875c.82053421 2.4552942.82053421 2.4552942 2.9375 4.3125l1 5 2 2c.56520003 2.65537372.73788198 5.29144713 1 8h3l.3125 2.1875c.54786366 2.86489862.54786366 2.86489862 2.1875 5.25 1.70178011 2.90720769 1.95021055 5.26376333 2.5 8.5625.96432076 1.68756133 1.96210419 3.35666496 3 5 .625 2 .625 2 1 4l.5625 2.75L447 582h2c.47985967 1.27057182.9588593 2.54146848 1.4375 3.8125l.80859375 2.14453125C451.86225186 589.62672396 452.43719235 591.31157704 453 593l2 1-1 3c.6406263 2.00107645.6406263 2.00107645 1.75 4l1.046875 2.0625c1.13405738 2.00036301 1.13405738 2.00036301 2.86328125 3.55078125L461 608c-.3125 2.1875-.3125 2.1875-1 4l3 1-2 1v2h3l1 9h2v2h2l.375 2.1875c.6210013 2.79450584 1.40316771 5.22509045 2.625 7.8125l2 1-.125 2.375c-.16228734 2.78616119-.16228734 2.78616119 2.125 4.625 1.26519785 2.8677818 2.29581872 5.80677833 3.375 8.75 1.42525811 3.85185141 3.10119856 7.55731157 4.85546875 11.26953125C485 667 485 667 485 670l3 1-.3125 2.1875c.4410967 3.9698703 2.31733682 5.31653068 5.3125 7.8125h2l1 3-1 2c.2086469 2.31817357.2086469 2.31817357.75 4.875l.484375 2.6171875C497.06712168 696.21985774 498.22884015 697.79174158 500 700c1.05047644 2.31104818 2.05007438 4.64583651 3 7l1.0625 2.5c1.16953533 3.11876089 2.05614824 6.28936146 2.9375 9.5h2l1.375 2.9375c1.28286221 3.13329582 1.28286221 3.13329582 3.625 4.0625l-1-5h2l.87109375-2.1796875c.719539-1.79760263 1.44071916-3.59454983 2.1640625-5.390625L519.0625 710.875l1.03515625-2.5703125C520.78251319 706.55548578 521.40596838 704.78209487 522 703h2l1-7 3-1c-.58776545 4.69056388-1.90179905 8.48412194-3.8359375 12.7890625l-.84854126 1.89608765c-.59006619 1.31415909-1.18357884 2.62677563-1.78036499 3.93789673-.9089288 1.99925325-1.80481302 4.00397977-2.69921875 6.00976562C514.02457576 730.31284428 514.02457576 730.31284428 511 734c-2.76661726-5.44317288-5.35512329-10.92569361-7.80078125-16.51953125l-1.07008362-2.43518066c-1.14952364-2.61825577-2.29576879-5.23792988-3.44163513-7.85778809l-1.20001221-2.7383728c-7.65859751-17.47690338-15.19347756-35.00542441-22.67993164-52.55661011C472.68850794 646.92650334 470.56340167 641.96308279 468.4375 637l-1.39477539-3.25683594c-5.74470081-13.40023894-11.52911064-26.78338484-17.30712891-40.169281-5.64597689-13.08064742-11.28390015-26.16458326-16.88925171-39.26269532-12.607744-29.84960587-12.607744-29.84960587-26.00259399-59.34634399-2.04565126-4.34352201-3.95826437-8.74486025-5.88891602-13.14038086-14.33552583-34.92818614-14.33552583-34.92818614-34.22827148-66.63696289C365 413 365 413 365 411Z"/>
  <path fill="#6565FE" d="M463 474c2.09669489 3.14504233 3.48398605 6.34008934 4.90625 9.81640625l.85186768 2.06242371c.91780063 2.22633263 1.83019645 4.45482706 2.74188232 6.68367004l.94250488 2.29577637C486.76920778 529.7675222 486.76920778 529.7675222 491 543c-7.14172941-2.27405744-14.02687987-4.97854122-20.9375-7.875l-3.09179688-1.27734375c-5.69831526-2.37823751-11.25189297-4.90884614-16.72509765-7.76928711-3.0239875-1.45215838-6.12401017-2.45256146-9.33544922-3.40258789C439 522 439 522 436 520v-2l-2.3125-.625C427.18565532 514.95058334 419.72467716 512.15381444 416 506v-2l-1.8828125-.2578125C412 503 412 503 410.8828125 501.2578125L410.125 499.125l-.8046875-2.1171875C409 495 409 495 411 492l1 2c2.33843243 1.2776108 4.6643111 2.47161883 7.0625 3.625l2.00976562.984375C422.71221247 499.41165115 424.35577492 500.2065288 426 501v2l1.90625.296875C433.94238089 504.35137979 438.64440845 506.02467136 444 509v2l6 1v2l2.9609375.25390625c4.64605017.6652246 8.49815933 2.60432229 12.6640625 4.68359375 1.47075935.7186665 2.94209914 1.43614652 4.4140625 2.15234375l2.06738281 1.01123047C474.36559515 523.17355871 476.66066466 524.11697026 479 525l2-4h-2l-.38671875-2.20703125c-.58520758-2.66511731-1.38212048-4.96487207-2.42578125-7.48046875-1.11796597-2.70751031-2.22526368-5.41147628-3.26953125-8.1484375L471.875 500.4375l-.9453125-2.50390625C470.15834004 495.82404312 470.15834004 495.82404312 468 495c-.52734375-2.0390625-.52734375-2.0390625-.9375-4.625-.59054182-3.30703418-1.27531466-6.20021006-2.6875-9.25C463 478 463 478 463 474Z"/>
  <path fill="#DB68FC" d="M704.6875 287.25c5.64202748 2.98069376 9.11333918 5.61549876 11.3125 11.75.69141216 4.62065687.52934824 8.61197164-1.625 12.8125-3.17104409 4.25587496-6.35826368 6.51525456-11.375 8.1875-6.89127949.70080808-10.56137134-.79412717-16-5-4.27789025-3.60243389-5.74797444-6.7737742-6.375-12.3125.59696121-5.87011858 2.66295991-10.05897406 6.9375-14.125 5.53915043-3.55073746 11.101626-3.35432169 17.125-1.3125Z"/>
  <path fill="#05050B" d="M491 543c4.03871593 1.52935967 8.07720115 3.05932654 12.11547852 4.58984375 1.37233335.52002169 2.74472838 1.03988065 4.1171875 1.55957031 1.97859882.74924091 3.95697133 1.49907674 5.93530273 2.24902344l3.60229492 1.36474609C519.52409876 553.81775526 522.26587497 554.8955307 525 556c-.60362393 5.52138362-2.54939711 10.09081972-4.75 15.125a26220.82400636 26220.82400636 0 0 0-2.171875 5.05859375l-1.07226562 2.47998047c-1.36207283 3.16384391-2.686139 6.34218613-4.00585938 9.52392578l-1.1875 2.85546875L511 593c-2.15469014-2.15469014-2.78071054-3.60716799-3.87939453-6.41796875l-1.09158325-2.77075195-1.16183472-2.9987793-1.20211792-3.07104492c-.83798753-2.14427739-1.67337785-4.2895713-2.50637817-6.43579102-1.27939457-3.29459916-2.56799403-6.58548466-3.85791016-9.87597656-.81174755-2.0805148-1.62296356-4.16123709-2.43359375-6.2421875l-1.17410278-2.9987793-1.07247925-2.77075195-.95071411-2.44458008C491 545 491 545 491 543Z"/>
  <path fill="#3301DF" d="M724 505c10.46547607 10.02941457 18.07937592 23.492199 19.25 38.125-.58901606 9.12974895-3.14476423 16.06989574-9.25 22.875l-1.4765625 1.75390625C729.01146275 571.65088358 726.1328382 572.97343236 721 574l-.3125-2.3125c-.73114039-2.85809424-1.45701913-3.84492885-3.6875-5.6875 5.75-4 5.75-4 8-4 4.58494303-8.46451022 6.69292251-16.23787449 4.30859375-25.76171875C726.36086854 527.59244287 722.13064149 518.8380232 716 512l1-2c10.14678899 9.85688073 10.14678899 9.85688073 11 16l2 2c.5625 2.0234375.5625 2.0234375 1 4.375.60459332 3.2280965 1.53467686 5.70033463 3 8.625.68161054 6.95242746-1.15515915 13.23273873-5 19h8c.70803998-2.5287142 1.13352283-4.9513502 1.5-7.5625C739 549 739 549 740 546c.15754704-1.95677555.15754704-1.95677555.125-4l.0078125-2.0625c-.06650124-2.15624781-.06650124-2.15624781-1.1328125-4.9375h-2l.625-1.5625c.53387026-3.47015671-.54823239-6.14385791-1.625-9.4375h-2l-.6640625-1.72265625c-2.07851623-5.06110253-4.33636469-8.84708844-8.1640625-12.76953125C724 508 724 508 724 505Z"/>
  <path fill="#3D27AA" d="M438 367c3.02136046.3952645 5.87918555.91114323 8.84765625 1.5625l2.70265198.56860352c8.8234509 1.8857794 17.58798545 4.00974906 26.33421325 6.22338867 2.57536433.65116795 5.15286061 1.29333047 7.7307129 1.93457031C492.83619538 379.5976871 501.95463513 382.06647888 511 385l-2 2c-2.12565222-.64368342-4.25050346-1.29001244-6.375-1.9375l-3.5859375-1.08984375C496 383 496 383 494 382l-1 2-2-2c-1.65919896-.36871088-3.32774271-.69595322-5-1l-2.8125-1c-3.76445471-1.1810054-7.26677226-1.59440748-11.1875-2v-2l-8-1-1 3 4 1v2l3.75.3125c5.9016827.65677033 11.52573401 2.14832477 17.25 3.6875l2.89453125.7578125c5.01081161 1.33154434 9.94345092 2.79006712 14.83984375 4.49609375 1.79165891.59001181 3.60215449 1.12279817 5.41772461 1.63452148 3.92523609 1.11675902 7.80454685 2.36507202 11.67993164 3.64282227l2.17521667.71691895c1.50365212.49664046 3.00701089.99416988 4.51008606 1.49255371 1.53818178.50885494 3.07725804 1.01501345 4.6171875 1.51855468 2.23446879.73067722 4.46622407 1.46914056 6.69750977 2.20947266l2.08955383.67883301C545.84432006 403.12629585 547.78973683 403.78973683 550 406c-7.39515416-1.48525178-14.40980318-3.68621235-21.5625-6.0625C501.65967468 391.20540713 473.85304362 382.41440573 446 378l1-3h2v-2c-4.39251833-2.02055843-8.15340923-3.40895235-13-4l2-2Z"/>
  <path fill="#E88CF5" d="m646.41015625 358.90234375 2.58457947.00428772c2.68929244.00553914 5.37849756.01807973 8.06776428.03086853 1.83788941.00502288 3.67578015.0095844 5.51367187.01367187C667.05081422 358.96212 671.52539238 358.97934161 676 359v1l-2.54760742.06005859c-3.18543634.0791277-6.37056047.1658392-9.55566406.25732422-1.36613296.03776589-2.73234782.07269887-4.09863282.10449219C650.70857214 360.6358248 641.94865515 361.39371215 633 363l-2.96484375.50146484C625.37486563 364.30301329 621.95358581 365.28896973 618 368l-2.3671875.7734375c-3.31909593 1.54628505-4.74797351 3.44660586-6.9453125 6.3515625l-2.11328125 2.7578125L605 380l1 2-1.875 1.6875c-2.26031602 2.45975567-3.03426529 4.18572717-4.125 7.3125-1.7370792 4.22941022-3.58776941 8.11945513-6 12-1.53649308 2.74951393-2 3.77414694-2 7h-2l-.8125 3.125c-1.00362959 3.53049842-2.4878174 6.61727501-4.1875 9.875l-.90234375 2.27734375c-1.71382164 4.25100955-3.76529572 8.34243773-5.7578125 12.46875C577.04811696 440.88314453 576.40991143 443.64479907 576 447h-2l-.9375 2.875C572 453 572 453 571 455h-2l-1 2c.54660812-6.21241154 3.21237688-11.45551116 5.75-17.0625l1.47460937-3.29589844c1.0455719-2.33564064 2.0938395-4.67007602 3.14453126-7.00341797 1.63932136-3.65706091 3.25501143-7.32373617 4.86523437-10.99365234 4.9593657-11.2753442 10.0056541-22.49926526 15.640625-33.45703125l1.25976563-2.49316406c5.83071568-11.06542318 13.43527709-18.12300003 25.29882812-22.11621094 6.91315512-1.55730131 13.91875027-1.72094145 20.9765625-1.67578125Z"/>
  <path fill="#4423EC" d="m596.359375 566.890625 3.10961914.64770508L602.75 568.25c2.24316735.46899179 4.48665944.93643299 6.73046875 1.40234375l3.34130859.69873047c4.40056454.89850211 8.81503053 1.6977087 13.24072266 2.46142578l2.16113281.37402344c1.59168598.27370898 3.1839494.54405787 4.77636719.81347656v1c-1.74818591.22304441-3.49870323.4278645-5.25.625l-2.953125.3515625C621.86570607 576.00112537 620.45471036 575.5312717 618 574l-1 7 3.21875.18359375C634.15671621 582.00202111 634.15671621 582.00202111 641 583v1c-7.96504493.23972082-15.51499197-.42409323-23.375-1.6875l-3.38623047-.53027344C603.68754237 580.0668476 593.34344399 577.67919356 583 575c.36985612-1.32005558.77193581-2.63111312 1.1875-3.9375l.66796875-2.21484375C586 567 586 567 588.27832031 566.19042969c2.91977636-.20429006 5.22153445.08751307 8.08105469.70019531Z"/>
  <path fill="#3FC2F6" d="m476 651 1 2h2c.81542431 2.08219049 1.62723189 4.16579761 2.4375 6.25l1.37109375 3.515625C484 666 484 666 484.47265625 668.359375L485 670l3 1-.3125 2.1875c.4410967 3.9698703 2.31733682 5.31653068 5.3125 7.8125h2l1 3-1 2c.2086469 2.31817357.2086469 2.31817357.75 4.875l.484375 2.6171875C497.06712168 696.21985774 498.22884015 697.79174158 500 700c1.05047644 2.31104818 2.05007438 4.64583651 3 7l1.0625 2.5c1.16953533 3.11876089 2.05614824 6.28936146 2.9375 9.5h2l1.375 2.9375c1.28286221 3.13329582 1.28286221 3.13329582 3.625 4.0625l-1-5h2l.87109375-2.1796875c.719539-1.79760263 1.44071916-3.59454983 2.1640625-5.390625L519.0625 710.875l1.03515625-2.5703125C520.78251319 706.55548578 521.40596838 704.78209487 522 703h2l1-7 3-1c-.58776545 4.69056388-1.90179905 8.48412194-3.8359375 12.7890625l-.84854126 1.89608765c-.59006619 1.31415909-1.18357884 2.62677563-1.78036499 3.93789673-.9089288 1.99925325-1.80481302 4.00397977-2.69921875 6.00976562C514.02457576 730.31284428 514.02457576 730.31284428 511 734c-2.79023246-5.48940747-5.39959684-11.02090432-7.87109375-16.66015625l-1.08830261-2.47175598c-1.16205121-2.64236067-2.32050983-5.28627156-3.47810364-7.93058777l-1.19769287-2.73272705c-5.10889268-11.66349384-10.18713471-23.34013476-15.14096069-35.07046509-.56348248-1.33382167-1.12863411-2.66693949-1.69549561-3.99932861-.77811724-1.83166729-1.54799752-3.66682732-2.31741333-5.50216675l-1.30322266-3.09716797C476 654 476 654 476 651Z"/>
  <path fill="#B0BCFB" d="M365 411c6.93810159.23672463 13.87565631.48633931 20.81298828.74462891 2.35666572.08625493 4.71343864.16963339 7.0703125.25 3.40120658.11648952 6.80188448.24355538 10.20263672.37255859l3.1578064.10128784C417.92094363 412.93415254 429.29119017 414.51449298 438 423c7.14710549 9.15196806 7.14710549 9.15196806 8 14-3.84516615-3.54938414-7.15122083-7.61288008-10-12v-2l-1.75-.87109375c-1.42092503-.7129294-2.83815251-1.43332113-4.25-2.1640625L428 418.9375l-2-1.03515625c-4.33700671-1.95673545-8.06497671-1.98464101-12.8125-1.90234375-7.6411582.07156132-7.6411582.07156132-11.4375-.5625-2.70294822-.70360393-2.70294822-.70360393-4.75.5625-2.99444406.23542471-5.99729849.18517593-9 .1875l-2.5234375.03710938-2.4140625.00585937-2.21484375.01245117C379 416 379 416 377 414h-3c.65986784 5.60887663 1.70353556 9.85584728 4.625 14.6875C380 431 380 431 380 433h2c2.7874546 4.1811819 3.21531237 8.06767777 4 13h2c.53229326 1.26607607 1.05044544 2.53810412 1.5625 3.8125l.87890625 2.14453125C391 454 391 454 390 457l-.85107422-1.74975586C384.22252591 445.16061747 379.2602465 435.11846365 373.5625 425.4375l-1.21240234-2.06811523c-1.74462747-2.91469683-3.4988264-5.55421519-5.63525391-8.20922852C365 413 365 413 365 411Z"/>
  <path fill="#2F2AAA" d="M554 491c1 2 1 2 .35083008 3.99609375L553.26953125 497.4375l-1.18554687 2.71484375L550.8125 503c-.80721024 1.83279621-1.61320438 3.66612851-2.41796875 5.5l-1.21459961 2.76293945C545.36466172 515.47377973 543.68203512 519.73462336 542 524c-.84795563 2.10667731-1.70099133 4.21132869-2.5625 6.3125l-1.19140625 2.92578125C537 536 537 536 535.28515625 538.73046875L534 541l1 2h-2v3h2v2l1.8515625.41015625c8.34834598 1.96362504 16.44525677 4.54742696 24.58056641 7.25219727l2.78662109.91186523 2.49804688.83081055C569.2518811 558.16810996 569.2518811 558.16810996 573 558v2l10 2v1c-4.18663175.14827092-7.54432014-.2490073-11.53515625-1.50390625l-3.17431641-.98632813L564.9375 559.4375l-3.45458984-1.08398438C550.94654761 555.02948304 540.46091828 551.55360281 530 548c.61197382-5.28323473 2.33616321-9.64404447 4.421875-14.4765625l1.03594971-2.44393921c1.09129392-2.57081098 2.19149554-5.1376938 3.29217529-7.70449829.72456627-1.70156417 1.44853026-3.40338494 2.171875-5.10546875 1.05460369-2.48143108 2.11050234-4.96224305 3.17199707-7.44073486 1.51902774-3.54825562 3.02634039-7.09836091 4.46667481-10.67938233l1.33007812-3.29785156 1.11035156-2.81005859C552 492 552 492 554 491Z"/>
  <path fill="#4239F3" d="m574 573 8 1c-.57230484 4.36726955-1.6557202 7.90989322-3.484375 11.91015625l-1.56567383 3.45556641c-.56662779 1.2322695-1.13327879 2.46452834-1.69995117 3.69677734-.58500096 1.28659567-1.1692161 2.57354891-1.75268555 3.86083984-1.21581748 2.68049558-2.43501137 5.35941359-3.65698242 8.03710938-2.63002715 5.76712894-5.23239566 11.54664214-7.8283081 17.32919311-.81964349 1.82449401-1.64165693 3.64792272-2.46368409 5.471344-2.41919579 5.38733153-4.79861599 10.78144-7.03662109 16.24682617l-1.11206055 2.71435547c-.66184486 1.63277143-1.31378544 3.26960867-1.95361328 4.91113281C548.71062218 653.45651457 547.86552881 655.23483286 547 657l-3 1c.48828125-6.0546875.48828125-6.0546875 1-8l3-2c1.57145143-3.26861898 2.81303417-6.40672747 3.90234375-9.86328125 1.122663-3.20817932 2.51736839-6.0677211 4.09765625-9.07421875 2.21357529-4.3353682 3.92292933-8.32338906 5-13.0625h2l.3671875-1.93359375L563.875 611.5625l.4921875-2.49609375L565 607l2-1c.90725434-2.11327425.90725434-2.11327425 1.625-4.5625l.7890625-2.50390625L570 597h2l.375-2.8125C573 591 573 591 575 588c.742368-2.13515766.742368-2.13515766 1.25-4.4375l.578125-2.30859375C577.03562548 578.53282036 576.39151616 577.30776096 575 575l-1-2Z"/>
  <path fill="#5AA4FC" d="m389 451 3 1c1.62323754 3.75907641 2.23994929 6.92086213 2 11l3 1-1 3h2l.8046875 2.08203125L399.875 471.8125l1.0546875 2.70703125C401.98832155 477.17711591 401.98832155 477.17711591 404 480l3 1v4l1 2-1 2 1.75.375c2.27335767.63148824 4.1753529 1.51358191 6.25 2.625v2l1.5625.25c3.48205732 1.07140225 6.30950885 2.88523605 9.4375 4.75-3 1-3 1-5.91796875-.21484375L416.8125 497.0625l-3.29296875-1.71484375L411 494c0 3.44118336.68964993 5.82757352 2 9l3 1c1.6875 2.5625 1.6875 2.5625 3 5-7.32102383-2.77011712-7.32102383-2.77011712-9.11572266-6.02099609l-1.04833984-2.50244141-1.19897461-2.81542969L406.375 494.625c-.88787431-2.09696811-1.77722609-4.19331119-2.66796875-6.2890625l-1.36083984-3.21191406c-1.64128873-3.8088376-3.3708558-7.57227949-5.11157227-11.33642578C393.79282063 466.33622217 390.61655205 459.10134131 389 451Z"/>
  <path fill="#1F207B" d="m525 556 2.77539062.93041992c3.48106439 1.16650424 6.96284764 2.33085067 10.44482422 3.49462891 1.49140009.49878373 2.98261862.99811077 4.47363282 1.49804687C553.09137779 565.40883082 563.52044727 568.76904108 574 572c-5.5470089 1.61433738-10.8645856.5677072-16-2l-1-2-3 1c-2.09375-.671875-2.09375-.671875-4.5-1.75-4.70345473-2.00191225-9.39462509-3.3932509-14.34765625-4.63671875C533 562 533 562 532 561c-1.99958364-.04080783-4.00045254-.04254356-6 0-1.57286394 3.50319695-2.94346236 6.80211827-4 10.5-1.6779353 5.87277354-4.30216913 11.21846916-7.1328125 16.60546875-1.3091607 2.86010334-2.17760045 4.83055-1.2734375 7.9296875L514.5 598.0625c1.60846343 3.6121097 1.60846343 3.6121097.5 6.9375-5.36809864-9.48924365-5.36809864-9.48924365-4.55566406-15.03076172 1.13488004-3.08574396 2.45197679-5.97048783 3.93066406-8.90673828.9264742-1.98735241 1.85094572-3.97563964 2.7734375-5.96484375l1.42089844-2.96826172C520.97942383 566.85763573 522.9879246 561.43370008 525 556Z"/>
  <path fill="#3924A0" d="M461 374h2v4l4 1v2l3.75.3125c5.9016827.65677033 11.52573401 2.14832477 17.25 3.6875l2.89453125.7578125c5.01081161 1.33154434 9.94345092 2.79006712 14.83984375 4.49609375 1.79165891.59001181 3.60215449 1.12279817 5.41772461 1.63452148 3.92523609 1.11675902 7.80454685 2.36507202 11.67993164 3.64282227l2.17521667.71691895c1.50365212.49664046 3.00701089.99416988 4.51008606 1.49255371 1.53818178.50885494 3.07725804 1.01501345 4.6171875 1.51855468 2.23446879.73067722 4.46622407 1.46914056 6.69750977 2.20947266l2.08955383.67883301C545.84432006 403.12629585 547.78973683 403.78973683 550 406c-7.39511259-1.48524343-14.40992298-3.68591679-21.5625-6.0625-10.50349099-3.42909735-21.0492684-6.63956173-31.6875-9.625l-2.02301025-.56918335c-6.98994986-1.96004765-13.99272034-3.83522525-21.0512085-5.5362854l-3.39941406-.81958008c-2.09130717-.49613736-4.1856429-.97973255-6.28320313-1.44873047l-2.77050781-.6496582-2.41381836-.54052734L457 380l-1-3 5-1v-2Z"/>
  <path fill="#5652F7" d="M463 474c2.17080093 3.2562014 3.58112787 6.59986105 5.046875 10.203125l.88995361 2.16619873c.94078988 2.29231561 1.87696411 4.58648585 2.81317139 6.88067627.61429784 1.49751298 1.2288785 2.99490997 1.84375 4.4921875 1.21536626 2.96163608 2.42364874 5.92602232 3.62695312 8.89257812 1.18246101 2.91339925 2.38593833 5.8167775 3.60546876 8.71484376.56323297 1.35738788 1.12638773 2.71480821 1.68945312 4.07226562l1.52441406 3.62792969C485 526 485 526 484 529c-2.54377987-.76434241-5.08486141-1.53622297-7.625-2.3125l-2.16015625-.64648438C469.90685081 524.71699945 465.98738299 523.14463344 462 521v-2l-2.9375-.875C456 517 456 517 455 515c4.78385777 1.47594992 9.18753913 3.40376506 13.6875 5.5625 5.06578166 2.4332128 5.06578166 2.4332128 10.3125 4.4375l2-4h-2l-.38671875-2.20703125c-.58520758-2.66511731-1.38212048-4.96487207-2.42578125-7.48046875-1.11796597-2.70751031-2.22526368-5.41147628-3.26953125-8.1484375L471.875 500.4375l-.9453125-2.50390625C470.15834004 495.82404312 470.15834004 495.82404312 468 495c-.52734375-2.0390625-.52734375-2.0390625-.9375-4.625-.59054182-3.30703418-1.27531466-6.20021006-2.6875-9.25C463 478 463 478 463 474Z"/>
  <path fill="#DC62F5" d="M667 391c1 3 1 3 .26295471 5.06863403l-1.22560119 2.40841675-1.3780365 2.74514771-1.53041077 2.97311401-1.56105042 3.09347534c-1.65912084 3.28356178-3.33167124 6.56005335-5.00535583 9.83621216-2.16914057 4.27152848-4.33297181 8.54573364-6.49609375 12.8203125l-1.58822632 3.13140869C644.14764567 441.64002845 640.01003096 450.28254139 636 459h-2v-3h2l.515625-2.08984375C638.33123402 446.86984257 640.75395049 440.49209903 644 434h2v-3h2l-.1875-3.3125C648 424 648 424 649.375 422.0625 651 421 651 421 653 421l-1-5 4-1 .25-3.6875c.50560771-4.16210402 1.94369114-6.16603249 4.75-9.3125.70211894-1.65204456 1.36971413-3.31923769 2-5 2.63157895-4.63157895 2.63157895-4.63157895 4-6Z"/>
  <path fill="#7549F1" d="M323 369c3.625-.1875 3.625-.1875 7 0-1.37458607 2.74917214-2.96513017 3.01411102-5.75 4.25-4.75910842 2.301257-7.30595962 4.38142395-10.25 8.75-2.92348551 8.77045654-1.41914306 17.89061001 2.45703125 26.06640625L318 411l1.57421875 3.02734375C325.71403577 425.14771164 333.86545079 434.25415501 343 443c-3 0-3 0-5.453125-2.08984375C319 422.02653631 319 422.02653631 319 416h-2v-2h-2c-7.24809545-23.97639881-7.24809545-23.97639881-2.3125-35.5625 2.04503948-3.62563775 4.46873548-4.84985813 8.3125-6.4375l2-3Z"/>
  <path fill="#9CA4EB" d="M379 412c8.61535386-.11910627 17.20401776.01307952 25.8125.375l2.6003418.09350586C418.66469824 412.98785553 429.64440412 414.85865017 438 423c7.14710549 9.15196806 7.14710549 9.15196806 8 14-3.84516615-3.54938414-7.15122083-7.61288008-10-12v-2l-1.75-.87109375c-1.42092503-.7129294-2.83815251-1.43332113-4.25-2.1640625L428 418.9375l-2-1.03515625c-4.33700671-1.95673545-8.06497671-1.98464101-12.8125-1.90234375-7.6411582.07156132-7.6411582.07156132-11.4375-.5625-2.70294822-.70360393-2.70294822-.70360393-4.75.5625-1.37548156.08308638-2.75485796.10736016-4.1328125.09765625l-2.44140625-.00976563L387.875 416.0625l-2.57421875-.01367188C383.20049091 416.03702874 381.1002367 416.01909306 379 416v-4Z"/>
  <path fill="#7963F4" d="m317 365 1 2-1.57421875 1.3203125C308.20870157 375.33748591 303.43077194 380.81096986 301.875 391.8125l-.5078125 3.51953125L301 398l2 1-1 3 2 1c.52734375 1.85546875.52734375 1.85546875.9375 4.1875 1.1059319 5.43461849 2.74242825 10.10958135 7.0625 13.8125l-3 1c-1.30203187-2.49505641-2.59160266-4.99537682-3.875-7.5l-1.10546875-2.109375c-4.49449537-8.82555454-6.85242612-18.24650067-4.33203125-28.0703125C303.06751681 375.05343309 308.4659726 369.70021306 317 365Z"/>
  <path fill="#4731F6" d="M612 653c1.8125 1.125 1.8125 1.125 3 3 .39365568 3.14924548.52854531 5.11909116-1.125 7.875-2.78606042 1.67163625-4.69488862 1.58876624-7.875 1.125-1.9375-1.6875-1.9375-1.6875-3-4 .13919208-2.85343764.63077853-4.46462886 2.25-6.8125 2.4185327-1.64114719 3.88550877-1.61717368 6.75-1.1875Z"/>
  <path fill="#3F23F4" d="M635 614c2.15502531 3.23253796 2.46856135 4.25150923 2 8-1.125 1.8125-1.125 1.8125-3 3-3.0625.375-3.0625.375-6 0-2.31361802-3.47042703-2.51020728-4.91834173-2-9 2.85088208-3.27323499 4.99772144-3.47452368 9-2Z"/>
  <path fill="#CD7CF0" d="m582 421 3 3-.953125 1.80078125C578.42280243 435.93019941 578.42280243 435.93019941 576 447h-2l-.9375 2.875C572 453 572 453 571 455h-2l-1 2c.57326833-4.33793151 1.64023728-7.89385089 3.43359375-11.87890625l1.46679687-3.29101563L574.4375 438.4375c.99930266-2.23019788 1.99802237-4.46065707 2.99609375-6.69140625l1.34545898-2.97875977C579.91236981 426.19861791 580.97502298 423.61355728 582 421Z"/>
  <path fill="#E565F5" d="M677 360h11c-3.25926966 5.79425718-6.73728988 11.42080398-10.2890625 17.0390625C675.02819547 381.30182438 672.46940637 385.60994422 670 390h-2c.82799187-4.47115609 3.22282634-7.77445692 5.625-11.5625 1.4517901-2.321666 1.4517901-2.321666 1.9375-4.6875L676 372l2-1c1.88186002-3.0318856 2-4.24517355 2-8l-3-1v-2Zm4 2 2 2v-2h-2Z"/>
  <path fill="#6E48F0" d="m612 504 2 3c-.76342773 2.58105469-.76342773 2.58105469-2.18359375 5.671875l-1.55371094 3.43432617c-.56638396 1.21476184-1.13312179 2.42935874-1.70019531 3.64379883-.56139668 1.22773473-1.12161805 2.45600757-1.68066406 3.68481445C605.27133757 526.96438598 603.63706584 530.48266785 602 534c-.78813254 1.70685947-1.57594845 3.41386523-2.36328125 5.12109375C598.10868549 542.42246074 596.56276247 545.7148972 595 549l-3-1h2l.25-3.125c.81935235-4.23332045 2.35311426-6.35457407 4.75-9.875.79070548-3.23038842.79070548-3.23038842 1-6h2l.8125-2.625C604 523 604 523 605.625 519.9375c1.56929216-2.78401717 1.56929216-2.78401717 1.3125-5.5.08884328-3.46488781 1.84191709-4.88046513 4.0625-7.4375l1-3Z"/>
  <path fill="#2C01B2" d="M724 505c9.75477188 9.34832305 16.85968062 21.53382391 19 35 .03824623 2.33301986.04574284 4.66711508 0 7-2.77082834-2.77082834-2.53096421-5.18070857-3-9l-1-3h-2l.625-1.5625c.53387026-3.47015671-.54823239-6.14385791-1.625-9.4375h-2l-.6640625-1.72265625c-2.07851623-5.06110253-4.33636469-8.84708844-8.1640625-12.76953125C724 508 724 508 724 505Z"/>
  <path fill="#07268C" d="M591 688c2 2 2 2 2.3125 4.9375-.3125 3.0625-.3125 3.0625-1.5 5C590 699 590 699 587.4375 698.8125 585 698 585 698 583 696c-.36487512-2.84602594-.40199375-4.3864306 1.1875-6.8125 2.4260694-1.58949375 3.96647406-1.55237512 6.8125-1.1875Z"/>
  <path fill="#4342DC" d="M481 540c7.13566553.9730453 7.13566553.9730453 10 3 1.2812124 2.44823708 2.31889169 4.74504293 3.3046875 7.30859375l.87161255 2.18946838c.60334477 1.52636238 1.19969862 3.05550414 1.78952026 4.58714295.90755552 2.34809276 1.84408991 4.68308231 2.78417969 7.01831054.58250522 1.48433028 1.16329399 2.96933555 1.7421875 4.45507813l.85494995 2.1214447C503.09716797 572.66186523 503.09716797 572.66186523 504 576l-2 3c-2.39451317-5.26792898-4.22758451-10.62333696-6.015625-16.125-.81003538-2.3658176-1.69672403-4.60391486-2.734375-6.875-1.25-3-1.25-3-1.25-7h-2l-.5625-2.3125c-2.07195622-3.87365728-4.36036538-4.25295263-8.4375-5.6875v-1Z"/>
  <path fill="#484BF4" d="M545 655c1.54623772 4.6828983-.38034561 7.80557845-2.40234375 12.046875l-1.08045959 2.3369751c-1.14068093 2.46062039-2.2974082 4.91330329-3.45469666 7.3661499-.77645981 1.6674713-1.55186358 3.33543478-2.32617188 5.00390625C533.83642299 685.84174834 531.92209268 689.92254637 530 694h-2c1.35352206-4.16036504 2.84113234-8.23952456 4.4375-12.3125 2.01096558-5.18805322 3.85710952-10.39181377 5.5625-15.6875h2l1.375-3.25c1.12588537-2.63062317 2.30420206-5.21000396 3.625-7.75Z"/>
  <path fill="#6C56F1" d="M463 474c2.22519735 3.33779603 3.69460208 6.79820679 5.22265625 10.484375l.92588806 2.22369385c.64473015 1.55262682 1.28763629 3.10601214 1.92884827 4.66009521.977124 2.36253328 1.9661978 4.71982434 2.95581054 7.07714844.62639606 1.51271255 1.2520704 3.02572419 1.87695313 4.5390625l.89332581 2.11566162C478.57142355 509.4300901 479.52347131 513.34313572 480 518c-2.83937513-2.1940626-3.47406383-4.35753965-4.3359375-7.75390625C474.21960459 505.36042728 472.24832654 500.56871484 470 496l-2-1c-.52734375-2.0390625-.52734375-2.0390625-.9375-4.625-.59054182-3.30703418-1.27531466-6.20021006-2.6875-9.25C463 478 463 478 463 474Z"/>
  <path fill="#2A0299" d="M716 510c3.82561324 2.32863414 6.25848743 3.84716233 8 8l1.5625 1.4375c1.88944365 2.0537431 1.95200665 3.8576085 2.4375 6.5625l2 2c.5625 2.0234375.5625 2.0234375 1 4.375.46250458 2.4694441.90420183 4.43837097 2.0546875 6.6796875C734.4852684 541.99861018 734.12368033 544.78431155 734 548l-2 1v-10h-2l-.6640625-2.01953125C726.18637707 527.82625855 722.25309383 519.45561187 716 512v-2Z"/>
  <path fill="#241052" d="m499 388 1.72265625.5859375L503.0625 389.375l2.28515625.7734375c1.93113547.62001109 3.87641183 1.19648437 5.82861328 1.74658203 3.91385098 1.13102347 7.78734362 2.36077721 11.65576172 3.63623047l2.17521667.71691895c1.50365212.49664046 3.00701089.99416988 4.51008606 1.49255371 1.53818178.50885494 3.07725804 1.01501345 4.6171875 1.51855468 2.23446879.73067722 4.46622407 1.46914056 6.69750977 2.20947266l2.08955383.67883301C545.84432006 403.12629585 547.78973683 403.78973683 550 406c-7.76881538-1.54876705-15.16926592-3.89726211-22.6875-6.375-9.38834452-3.08320017-18.79404465-5.97548624-28.3125-8.625v-3Z"/>
  <path fill="#ED7FF5" d="m646.41015625 358.90234375 2.58457947.00428772c2.68929244.00553914 5.37849756.01807973 8.06776428.03086853 1.83788941.00502288 3.67578015.0095844 5.51367187.01367187C667.05081422 358.96212 671.52539238 358.97934161 676 359v1l-2.54760742.06005859c-3.18543634.0791277-6.37056047.1658392-9.55566406.25732422-1.36613296.03776589-2.73234782.07269887-4.09863282.10449219-9.69698595.22824829-19.5943856.52864818-28.98632812 3.20068359C628.14044256 364.17906964 626.40520927 363.13579327 624 362c6.77834461-3.74516544 14.85265884-3.14601374 22.41015625-3.09765625Z"/>
  <path fill="#E27AED" d="M704.6875 287.25c4.45637032 2.35430885 7.50870754 4.54431131 10.3125 8.75-.375 2.1875-.375 2.1875-1 4l-.8828125-1.64453125C710.40238566 293.61737119 708.45905359 290.61749736 703 289c-3.75795854-.48066911-7.25660517-.65230271-11 0-2.49210521 2.30068019-2.49210521 2.30068019-4 5-2.25.8125-2.25.8125-4 1l-1 6h-1c.41350303-5.27216362 1.17034992-8.27385398 5-12 5.90793449-3.89386591 11.20297166-3.9481452 17.6875-1.75Z"/>
  <path fill="#65BFF2" d="m389 451 3 1c1.62323754 3.75907641 2.23994929 6.92086213 2 11l3 1-1 3h2c.9490938 2.37273451 1.89716016 4.7458014 2.83984375 7.12109375.76410055 1.89610136 1.54755689 3.78453463 2.3515625 5.6640625L404.3125 482.4375l1.05078125 2.43359375C406 487 406 487 405 490c-1.94725521-4.1267972-3.8912857-8.25502274-5.828125-12.38671875-1.30540896-2.78231057-2.6245813-5.55653707-3.96875-8.3203125C392.28396405 463.20174925 390.13046577 457.66974807 389 451Z"/>
  <path fill="#42B1F3" d="M527 695c1.07772155 2.73289602 1.0297182 3.90884585.10375977 6.74902344l-1.41235352 3.11035156-1.51367187 3.37890625L522.5625 711.75l-1.60351562 3.55859375C519.64956141 718.21055817 518.32959531 721.10723611 517 724l-4-1v-2h2l.87109375-2.1796875c.719539-1.79760263 1.44071916-3.59454983 2.1640625-5.390625L519.0625 710.875l1.03515625-2.5703125C520.78251319 706.55548578 521.40596838 704.78209487 522 703h2l.375-3.4375L525 696l2-1Z"/>
  <path fill="#6C48BB" d="M554 491c1 2 1 2 .33496094 4.02783203l-1.10058594 2.47998047L552.03515625 500.25 550.75 503.125c-.81943578 1.85600912-1.63717068 3.7127702-2.453125 5.5703125l-1.20117188 2.71191406c-1.00567949 2.37974962-1.86986756 4.76647941-2.70507812 7.20996094L543 522l-3 1c2.00421684-7.26985005 4.57001641-14.14512766 7.5625-21.0625l1.20898438-2.87304688 1.16992187-2.72460937 1.05297852-2.45727539C552 492 552 492 554 491Z"/>
  <path fill="#A4D0F7" d="m372 421 2 1v2h2c1.52448631 2.9826906 2.93940067 5.818202 4 9h2c2.7874546 4.1811819 3.21531237 8.06767777 4 13h2c.53229326 1.26607607 1.05044544 2.53810412 1.5625 3.8125l.87890625 2.14453125C391 454 391 454 390 457l-.89868164-1.82910156c-7.50138706-15.32040387-7.50138706-15.32040387-15.95678711-30.12402344C372 423 372 423 372 421Z"/>
  <path fill="#7E5BF5" d="M323 369c3.625-.1875 3.625-.1875 7 0-1.37458607 2.74917214-2.96513017 3.01411102-5.75 4.25-4.75910842 2.301257-7.30595962 4.38142395-10.25 8.75-.94137255 2.82411765-1.11725382 4.52918032-1.09765625 7.44921875l.00976563 2.56835937L312.9375 394.6875l.01367188 2.70507812C312.96295017 399.59511987 312.97939836 401.79752599 313 404c-3.61578393-6.87927471-3.67301437-14.63231547-1.65625-22.0625 1.46538314-4.32636926 2.62373252-6.38963358 6.71875-8.5625L321 372l2-3Z"/>
  <path fill="#1D2394" d="M535 560c8.39676771 2.49228744 16.76151137 5.08628183 25.125 7.6875 1.35154868.41996634 2.70311109.83988852 4.0546875 1.25976562C567.45328307 569.96433562 570.72669356 570.98199978 574 572c-5.5470089 1.61433738-10.8645856.5677072-16-2l-1-2-3 1c-2.1640625-.671875-2.1640625-.671875-4.625-1.75-4.72564076-2.00144785-9.48744053-3.69164771-14.375-5.25v-2Z"/>
  <path fill="#311B7F" d="M477 376c11.47751454 2.57130801 22.75092939 5.56473939 34 9l-2 2c-2.12565222-.64368342-4.25050346-1.29001244-6.375-1.9375l-3.5859375-1.08984375C496 383 496 383 494 382l-1 2-2-2c-1.65919896-.36871088-3.32774271-.69595322-5-1l-3.125-1.0625c-2.84636615-1.0925103-2.84636615-1.0925103-5.875-.9375v-3Z"/>
  <path fill="#BA58F6" d="m644 434 2 1c-.59084404 3.52055917-1.5155542 6.43361222-3.06640625 9.64453125l-1.22070313 2.54882813L640.4375 449.8125l-1.28710938 2.67773438C638.10528576 454.66264337 637.05503238 456.83239957 636 459h-2v-3h2l.515625-2.08984375C638.33123402 446.86984257 640.75395049 440.49209903 644 434Z"/>
  <path fill="#5C28F8" d="M400 489c2.6875.3125 2.6875.3125 6 2 2.30809835 3.83490243 5 8.43398618 5 13h-2v-3l-5-1c-.79953138-3.28696233-1.09658936-4.71023192 0-8l-4-2v-1Z"/>
  <path fill="#513EEF" d="m593 549 2 1-7 16h3l-1 2-3-1v-2l-4-2c1-2 1-2 4-3 1.42783006-2.28601729 1.42783006-2.28601729 2.625-5 2.31617647-4.94117647 2.31617647-4.94117647 3.375-6Z"/>
  <path fill="#825EF7" d="m300 395 1 3 2 1-1 3 2 1c.52734375 1.85546875.52734375 1.85546875.9375 4.1875 1.1059319 5.43461849 2.74242825 10.10958135 7.0625 13.8125l-3 1c-1.31746333-2.58090767-2.62909617-5.16450458-3.9375-7.75l-1.13085938-2.2109375-1.08398437-2.1484375-.99975586-1.96777344C299.93445208 403.58357173 299.90913646 399.72490393 300 395Z"/>
  <path fill="#2A1462" d="M511 386c4.81767553.58112039 9.19926443 1.55828468 13.80859375 3.06640625l3.75976563 1.22070313c1.28975483.42500492 2.57946787.85013668 3.86914062 1.27539062 1.31688546.4295636 2.63394142.85860484 3.95117188 1.28710938C539.59415995 393.89462197 542.79782127 394.94489911 546 396c-10.50117502 2.9188219-25.04014981-5.43318811-35-9v-1Z"/>
  <path fill="#311D86" d="M474 382c8.64793218 1.04510203 18.65601396 3.10400931 26 8-6.34405026-.64478081-12.3329118-1.96246331-18.5-3.5625l-2.78125-.70898438C476.47802077 385.15666285 474.23852312 384.58041707 472 384l2-2Z"/>
  <path fill="#4B2FCC" d="M402.35546875 367.76953125C407.66485476 367.85008745 412.76840873 368.06993933 418 369l-1 3-19-2c2-2 2-2 4.35546875-2.23046875Z"/>
  <path fill="#CD5FF5" d="M654 415c1.1395857 3.32119779.92267601 4.92902169-.58203125 8.07421875l-1.07617187 2.27148437L651.1875 427.6875l-1.11914062 2.37695312C647.27773727 435.86113137 647.27773727 435.86113137 645 437l1-6h2l-.1875-3.3125C648 424 648 424 649.375 422.0625 651 421 651 421 653 421l-1-5 2-1Z"/>
  <path fill="#A4AEFA" d="m425 415 2 2-2.81640625-.21875L420.4375 416.5l-3.69140625-.28125C414.24018866 416.07241978 411.72892387 416 409.21875 416c-2.91627988 0-5.39527076-.31552018-8.21875-1v-1c7.85672852-2.02754284 16.28202676-1.36353812 24 1Z"/>
  <path fill="#3E8FFB" d="M414 507c4.84015316 1.76534644 9.2835127 4.19536725 13.8125 6.625l2.38867188 1.2734375C432.13535326 515.9300009 434.06823983 516.96391172 436 518c-3 1-3 1-5.5234375-.25-1.89725968-1.16434567-3.79310157-2.33100482-5.6875-3.5-3.17225772-1.42174015-4.53450616-1.29145803-7.7890625-.25l-3-7Z"/>
  <path fill="#5446E5" d="M480 516c1.79068573 2.6860286 2.66055791 4.6626589 3.625 7.6875l.7890625 2.44921875L485 528c-2 1-2 1-3.9453125.44140625L478.875 527.5625l-2.1953125-.87109375L475 526l1-2 3 1 2-4h-2l1-5Z"/>
  <path fill="#422BB9" d="M425 371c6.62237667.78570571 12.67529707 1.79370828 19 4v2l-2.37890625-.40234375C436.08812013 375.66757357 430.55926159 374.75808113 425 374v-3Z"/>
  <path fill="#1D2585" d="M515 583c1.15161044 3.45483133.89765968 3.63599097-.625 6.6875-1.43026191 3.46072301-1.43026191 5.16427699 0 8.625l.9609375 1.92578125C516 602 516 602 515 605c-5.53811659-9.91748879-5.53811659-9.91748879-4.21875-15.0234375C512.05041292 587.51579662 513.38451166 585.24677147 515 583Z"/>
  <path fill="#2A0299" d="M724 505c3.661446 3.46907581 6.51835758 6.95155905 9.3125 11.1875a464729557.529186 464729557.529186 0 0 0 2.11328125 3.16796875C737 522 737 522 737 524h-3l-.6640625-1.72265625c-2.07851623-5.06110253-4.33636469-8.84708844-8.1640625-12.76953125C724 508 724 508 724 505Z"/>
  <path fill="#B06DE7" d="M575 441c.5534764 2.07553648 1 3.84365964 1 6h-2l-.9375 2.875C572 453 572 453 571 455h-2l-1 2c.72499146-5.94492996 2.15159597-12.0751015 7-16Z"/>
  <path fill="#EA84F6" d="m696 287-1.75.6875c-2.45085375 1.24324207-2.45085375 1.24324207-4.25 3.875-2.06618681 2.51816518-2.84502343 3.0994668-6 3.4375l-1 6h-1c.41460402-5.28620124 1.28322682-8.17390997 5-12 3.4352048-2.29013653 4.985331-2.17842973 9-2Z"/>
  <path fill="#563BAC" d="m546 506 2 1c-.65803056 4.34300169-2.2219005 7.99927611-4 12l-1 3-3 1c1.66153012-5.85659906 3.47041916-11.4590134 6-17Z"/>
  <path fill="#D1E2FE" d="m365 411 22 2v1h-16l-2 4c-4-4.75-4-4.75-4-7Z"/>
  <path fill="#4490F6" d="M527 695c1.11346788 2.80033839 1.03510273 3.90143703.00390625 6.796875L525.5625 704.75l-1.43359375 2.984375L523 710l-2-1v-5l3-1 .375-3.4375L525 696l2-1Z"/>
  <path fill="#78C2F4" d="m389 451 3 1c1.62323754 3.75907641 2.23994929 6.92086213 2 11l3 1v6c-4.71723117-5.84038145-6.62986588-11.74634877-8-19Z"/>
  <path fill="#2C00B7" d="M728 530h3l.375 3.25c.38978599 3.56275509.38978599 3.56275509 1.6875 5.75 1.39615464 2.97846323 1.06198052 5.76350659.9375 9l-2 1v-10h-2l-2-9Z"/>
  <path fill="#824CF5" d="m612 504 2 3c-1.1171875 3.13671875-1.1171875 3.13671875-2.875 6.6875l-1.7421875 3.57421875L608 520c-1.02200151-3.06600453-1.37955141-4.81176817-1-8 1.9375-2.625 1.9375-2.625 4-5l1-3Z"/>
  <path fill="#8256CD" d="M558 477c1.10546875 1.67578125 1.10546875 1.67578125 2 4-.57421875 2.54296875-.57421875 2.54296875-1.6875 5.1875l-1.07421875 2.66796875C556 491 556 491 553 492c3.07517084-10.55808656 3.07517084-10.55808656 5-15Z"/>
  <path fill="#462FC4" d="M421 364c3.2578125.2421875 3.2578125.2421875 7.125.875l3.8828125.6171875L435 366l-1 3c-5.27315333-.4452885-10.01770224-1.08373163-15-3l2-2Z"/>
  <path fill="#523DF0" d="M486 530c2.08630053.76276595 4.1689432 1.53554157 6.25 2.3125l3.515625 1.30078125C498.5941299 534.82598565 500.66536544 536.02942974 503 538c-2.65837761-.45572188-4.95712169-.98130945-7.4375-2.0625-2.98558583-1.0922875-5.40779623-1.08423041-8.5625-.9375l-1-5Z"/>
  <path fill="#442CBD" d="M438 367c2.74406912.2956971 5.30714403.69918855 8 1.25l2.234375.41015625C453.73398526 369.73398526 453.73398526 369.73398526 456 372c-6.88940671-.43632909-13.35751464-1.08389845-20-3l2-2Z"/>
  <path fill="#4A6EF3" d="M535 678c1.39211215 4.17633644-.0464421 5.78960515-1.9375 9.6875l-1.71484375 3.57421875L530 694h-2c1.64566523-5.68502535 4.29032784-10.76681636 7-16Z"/>
  <path fill="#4CB4F1" d="M413 506c2.52827282 3.13024254 4.20542002 6.41084003 6 10l2 2c.125 3.125.125 3.125 0 6-2.4291373-3.01327002-4.09184125-6.0405505-5.6875-9.5625l-1.32421875-2.87890625C413 509 413 509 413 506Z"/>
  <path fill="#121220" d="M367 409h11v3c-1.45823212.0270043-2.91660675.04639787-4.375.0625l-2.4609375.03515625C369 412 369 412 367 411v-2Z"/>
  <path fill="#251F7E" d="M530 544h3v2h2v2l8 2c-4.12414757 1.03103689-4.9841142.94701684-8.75-.4375l-2.421875-.87109375L530 548v-4Z"/>
  <path fill="#6593FD" d="M410 497c2 2 2 2 2.4375 4.0625L413 503l3 1c1.6875 2.5625 1.6875 2.5625 3 5-2.9719385-1.12451727-5.33440687-2.22293791-8-4-1.25-3-1.25-3-2-6l1-2Z"/>
  <path fill="#C277ED" d="m577 432 2 2c-.3269756 2.61580479-.82039068 4.64078137-2 7h-2l-1 5c-1.37095624-3.69037278-.60010967-5.70883835.9375-9.25l1.15234375-2.703125L577 432Z"/>
  <path fill="#07050F" d="M445 431h2v4h2l1 6h2l-1 3c-6-7.71428571-6-7.71428571-6-13Z"/>
  <path fill="#3000D0" d="M731 539h1c.24942657 2.24784424.47383488 4.49847506.6875 6.75l.38671875 3.796875C732.99485632 553.23931642 732.53835868 554.41596392 730 557c-1.25985286-3.77955857-.64024579-6.84423452-.0625-10.6875l.30273438-2.12695312C730.48729325 542.45613473 730.74282852 540.7279373 731 539Z"/>
  <path fill="#090A1D" d="M507 585h5c.6875 1.75.6875 1.75 1 4-1.4375 2.25-1.4375 2.25-3 4l-3-8Z"/>
  <path fill="#5B8DFE" d="M411 493c6.16456078.38528505 9.98627748 2.47086025 15 6-3 1-3 1-5.91796875-.21484375L416.8125 497.0625l-3.29296875-1.71484375L411 494v-1Z"/>
  <path fill="#35208F" d="m477 376 12 3-2 3-1.625-.9375c-2.7734957-1.24077439-5.37542837-1.6534675-8.375-2.0625v-3Z"/>
  <path fill="#45319E" d="m541 522 1 2c-.70703125 1.91015625-.70703125 1.91015625-1.8125 4.0625l-1.08203125 2.16015625C538 532 538 532 536 533c.60897353-3.55234558 1.45733849-6.7331874 3-10l2-1Z"/>
  <path fill="#5E4DEF" d="M475 505c2.54384726 1.27192363 2.69368156 2.19948469 3.6875 4.8125l.82421875 2.08203125C480.06812731 514.29376496 479.77364938 515.6894364 479 518c-1.71767682-3.98188718-3.41037341-7.96479403-5-12l1-1Z"/>
  <path fill="#8F4AF3" d="M621 485h1c-.75 6.625-.75 6.625-3 10h-2l1-6h2l1-4Z"/>
  <path fill="#D87FF3" d="M591 401h3l-1 2.8125c-1.14967004 3.10779291-1.14967004 3.10779291-1 6.1875h-2l-1 2c.14107747-1.45880109.28802415-2.91703551.4375-4.375l.24609375-2.4609375C590 403 590 403 591 401Z"/>
  <path fill="#292FC8" d="M560 568c1.77260631.45142775 3.5430368.91140523 5.3125 1.375l2.98828125.7734375C571 571 571 571 574 573c-1.77155654-.11429397-3.54226229-.24183037-5.3125-.375l-2.98828125-.2109375C563 572 563 572 560 570v-2Z"/>
  <path fill="#6144F7" d="m597 538 2 3-4 8-3-1h2l.375-3.3125C595 541 595 541 597 538Z"/>
  <path fill="#200D41" d="m530 391 16 5c-4.18786885 1.04696721-5.6056232.83047642-9.625-.3125l-2.9140625-.80078125C531 394 531 394 529 392l1-1Z"/>
  <path fill="#100C1C" d="m682 290 3 1c-.42492126 1.29585916-.86545882 2.5866044-1.3125 3.875l-.73828125 2.1796875C682 299 682 299 679 301c-.125-2.375-.125-2.375 0-5l2-2c.6425235-2.06874034.6425235-2.06874034 1-4Z"/>
  <path fill="#0D0817" d="m706 318 3 1c-1.41519715 2.0343459-2.54982123 2.90410393-4.98046875 3.421875-2.00130079.24086452-4.01052565.41345241-6.01953125.578125v-2l2.3125-.375c2.89017136-.50602792 2.89017136-.50602792 5.6875-2.625Z"/>
  <path fill="#100C1F" d="M699 280c3.81538462 2.46153846 3.81538462 2.46153846 4.75 5.1875L704 287c-2.50357861-.8345262-4.66785852-1.79371992-7-3l2-4Z"/>
  <path fill="#3B40D1" d="M504 578c2.18975773 3.28463659 2.99806563 6.20696275 4 10l-2 1c-2.32590854-3.63423209-2.16265833-6.77088331-2-11Z"/>
  <path fill="#481BF9" d="m620 573 13 1v1l-11 1-2-3Z"/>
  <path fill="#4A40DF" d="m475 524 6 2 1-2 3 2-1 3-9-3v-2Z"/>
  <path fill="#E373F7" d="M715 301h1c.125 3.375.125 3.375 0 7l-2 2c-.625-3.375-.625-3.375-1-7l2-2Z"/>
  <path fill="#3AB3F1" d="M481 661c2.00773956 2.00773956 2.99392854 3.36873617 4 6-.375 2.25-.375 2.25-1 4-1.79237442-2.68856164-2.98446183-4.9533855-4-8l1-2Z"/>
  <path fill="#7D5EF4" d="M314 376h3l-.875 1.6875c-1.1663253 2.39744645-2.1589881 4.82846939-3.125 7.3125h-2l3-9Z"/>
  <path fill="#0A0911" d="m717 306 2 3-1 3h-2v2l-3-1c1.07401108-2.91517292 1.77810176-4.77810176 4-7Z"/>
  <path fill="#C5D3EE" d="M365 411h4v2l2 2-2 3c-4-4.75-4-4.75-4-7Z"/>
  <path fill="#DE7DFA" d="m598 390 2 2c-3.75 6.875-3.75 6.875-6 8 1.1094072-3.48670834 2.26337666-6.77484237 4-10Z"/>
  <path fill="#38249E" d="M469 374c1.84765625.33984375 1.84765625.33984375 4.0625.9375l2.22265625.58984375L477 376l-1 2h-4v-2l-4-1 1-1Z"/>
  <path fill="#3BABF4" d="M443 575c3.93846154 3.32307692 3.93846154 3.32307692 4.25 6.75L447 584c-2.50298434-2.93828597-3.46930939-5.17902761-4-9Z"/>
  <path fill="#685BDD" d="M299 387c1.46132217 2.92264434 2.34099246 4.92463146 3 8h-2l-1 3v-11Z"/>
  <path fill="#8261FA" d="m317 365 1 2c-1.75 2.0625-1.75 2.0625-4 4-2.25-.25-2.25-.25-4-1 4.75-3.875 4.75-3.875 7-5Z"/>
  <path fill="#0A0A14" d="m707 288 6 1 1 4c-2.88437779-1.29299694-4.87219421-2.65941363-7-5Z"/>
</svg>
